<svg id="visual" viewBox="0 0 900 600" width="900" height="600" xmlns="http://www.w3.org/2000/svg" xmlns:xlink="http://www.w3.org/1999/xlink" version="1.1"><rect x="0" y="0" width="900" height="600" fill="#001220"></rect><path d="M148 0L147.3 7.2C146.7 14.3 145.3 28.7 137 43C128.7 57.3 113.3 71.7 113.2 86C113 100.3 128 114.7 128.3 128.8C128.7 143 114.3 157 109.2 171.2C104 185.3 108 199.7 113.2 214C118.3 228.3 124.7 242.7 130.3 257C136 271.3 141 285.7 143.7 300C146.3 314.3 146.7 328.7 143.7 343C140.7 357.3 134.3 371.7 129.2 386C124 400.3 120 414.7 118.7 428.8C117.3 443 118.7 457 121.3 471.2C124 485.3 128 499.7 126.5 514C125 528.3 118 542.7 118.2 557C118.3 571.3 125.7 585.7 129.3 592.8L133 600L0 600L0 592.8C0 585.7 0 571.3 0 557C0 542.7 0 528.3 0 514C0 499.7 0 485.3 0 471.2C0 457 0 443 0 428.8C0 414.7 0 400.3 0 386C0 371.7 0 357.3 0 343C0 328.7 0 314.3 0 300C0 285.7 0 271.3 0 257C0 242.7 0 228.3 0 214C0 199.7 0 185.3 0 171.2C0 157 0 143 0 128.8C0 114.7 0 100.3 0 86C0 71.7 0 57.3 0 43C0 28.7 0 14.3 0 7.2L0 0Z" fill="#fa7268"></path><path d="M88 0L92 7.2C96 14.3 104 28.7 104 43C104 57.3 96 71.7 91 86C86 100.3 84 114.7 87.3 128.8C90.7 143 99.3 157 105.2 171.2C111 185.3 114 199.7 116.7 214C119.3 228.3 121.7 242.7 116.3 257C111 271.3 98 285.7 95.2 300C92.3 314.3 99.7 328.7 101 343C102.3 357.3 97.7 371.7 98.2 386C98.7 400.3 104.3 414.7 103.2 428.8C102 443 94 457 96.7 471.2C99.3 485.3 112.7 499.7 117.5 514C122.3 528.3 118.7 542.7 110.8 557C103 571.3 91 585.7 85 592.8L79 600L0 600L0 592.8C0 585.7 0 571.3 0 557C0 542.7 0 528.3 0 514C0 499.7 0 485.3 0 471.2C0 457 0 443 0 428.8C0 414.7 0 400.3 0 386C0 371.7 0 357.3 0 343C0 328.7 0 314.3 0 300C0 285.7 0 271.3 0 257C0 242.7 0 228.3 0 214C0 199.7 0 185.3 0 171.2C0 157 0 143 0 128.8C0 114.7 0 100.3 0 86C0 71.7 0 57.3 0 43C0 28.7 0 14.3 0 7.2L0 0Z" fill="#f16367"></path><path d="M101 0L101.5 7.2C102 14.3 103 28.7 99.8 43C96.7 57.3 89.3 71.7 86 86C82.7 100.3 83.3 114.7 81 128.8C78.7 143 73.3 157 74.5 171.2C75.7 185.3 83.3 199.7 88.5 214C93.7 228.3 96.3 242.7 94 257C91.7 271.3 84.3 285.7 78.3 300C72.3 314.3 67.7 328.7 69 343C70.3 357.3 77.7 371.7 83.7 386C89.7 400.3 94.3 414.7 93.7 428.8C93 443 87 457 85.3 471.2C83.7 485.3 86.3 499.7 84.7 514C83 528.3 77 542.7 79.8 557C82.7 571.3 94.3 585.7 100.2 592.8L106 600L0 600L0 592.8C0 585.7 0 571.3 0 557C0 542.7 0 528.3 0 514C0 499.7 0 485.3 0 471.2C0 457 0 443 0 428.8C0 414.7 0 400.3 0 386C0 371.7 0 357.3 0 343C0 328.7 0 314.3 0 300C0 285.7 0 271.3 0 257C0 242.7 0 228.3 0 214C0 199.7 0 185.3 0 171.2C0 157 0 143 0 128.8C0 114.7 0 100.3 0 86C0 71.7 0 57.3 0 43C0 28.7 0 14.3 0 7.2L0 0Z" fill="#e85467"></path><path d="M54 0L55.2 7.2C56.3 14.3 58.7 28.7 61.5 43C64.3 57.3 67.7 71.7 68 86C68.3 100.3 65.7 114.7 67.3 128.8C69 143 75 157 78.2 171.2C81.3 185.3 81.7 199.7 79.2 214C76.7 228.3 71.3 242.7 70.7 257C70 271.3 74 285.7 76.7 300C79.3 314.3 80.7 328.7 81 343C81.3 357.3 80.7 371.7 78.5 386C76.3 400.3 72.7 414.7 72 428.8C71.3 443 73.7 457 71 471.2C68.3 485.3 60.7 499.7 57.3 514C54 528.3 55 542.7 57.8 557C60.7 571.3 65.3 585.7 67.7 592.8L70 600L0 600L0 592.8C0 585.7 0 571.3 0 557C0 542.7 0 528.3 0 514C0 499.7 0 485.3 0 471.2C0 457 0 443 0 428.8C0 414.7 0 400.3 0 386C0 371.7 0 357.3 0 343C0 328.7 0 314.3 0 300C0 285.7 0 271.3 0 257C0 242.7 0 228.3 0 214C0 199.7 0 185.3 0 171.2C0 157 0 143 0 128.8C0 114.7 0 100.3 0 86C0 71.7 0 57.3 0 43C0 28.7 0 14.3 0 7.2L0 0Z" fill="#de4467"></path><path d="M45 0L44 7.2C43 14.3 41 28.7 41.8 43C42.7 57.3 46.3 71.7 47.8 86C49.3 100.3 48.7 114.7 47.3 128.8C46 143 44 157 41.3 171.2C38.7 185.3 35.3 199.7 36.7 214C38 228.3 44 242.7 44 257C44 271.3 38 285.7 37 300C36 314.3 40 328.7 44.3 343C48.7 357.3 53.3 371.7 52 386C50.7 400.3 43.3 414.7 39.5 428.8C35.7 443 35.3 457 34.5 471.2C33.7 485.3 32.3 499.7 33.3 514C34.3 528.3 37.7 542.7 42.8 557C48 571.3 55 585.7 58.5 592.8L62 600L0 600L0 592.8C0 585.7 0 571.3 0 557C0 542.7 0 528.3 0 514C0 499.7 0 485.3 0 471.2C0 457 0 443 0 428.8C0 414.7 0 400.3 0 386C0 371.7 0 357.3 0 343C0 328.7 0 314.3 0 300C0 285.7 0 271.3 0 257C0 242.7 0 228.3 0 214C0 199.7 0 185.3 0 171.2C0 157 0 143 0 128.8C0 114.7 0 100.3 0 86C0 71.7 0 57.3 0 43C0 28.7 0 14.3 0 7.2L0 0Z" fill="#d23467"></path><path d="M21 0L23.7 7.2C26.3 14.3 31.7 28.7 30.7 43C29.7 57.3 22.3 71.7 21.5 86C20.7 100.3 26.3 114.7 28.2 128.8C30 143 28 157 28.5 171.2C29 185.3 32 199.7 32.3 214C32.7 228.3 30.3 242.7 31 257C31.7 271.3 35.3 285.7 36.8 300C38.3 314.3 37.7 328.7 34.5 343C31.3 357.3 25.7 371.7 24.7 386C23.7 400.3 27.3 414.7 26.7 428.8C26 443 21 457 20 471.2C19 485.3 22 499.7 23.5 514C25 528.3 25 542.7 26.5 557C28 571.3 31 585.7 32.5 592.8L34 600L0 600L0 592.8C0 585.7 0 571.3 0 557C0 542.7 0 528.3 0 514C0 499.7 0 485.3 0 471.2C0 457 0 443 0 428.8C0 414.7 0 400.3 0 386C0 371.7 0 357.3 0 343C0 328.7 0 314.3 0 300C0 285.7 0 271.3 0 257C0 242.7 0 228.3 0 214C0 199.7 0 185.3 0 171.2C0 157 0 143 0 128.8C0 114.7 0 100.3 0 86C0 71.7 0 57.3 0 43C0 28.7 0 14.3 0 7.2L0 0Z" fill="#c62368"></path></svg>